<svg xmlns="http://www.w3.org/2000/svg" xmlns:xlink="http://www.w3.org/1999/xlink" fill="none" viewBox="0 0 104 104"><g clip-path="url(#a)"><rect width="104" height="104" fill="#09090b" rx="28"/><rect width="103" height="103" x=".5" y=".5" stroke="#27272a" stroke-opacity=".8" rx="27.5"/><g fill="#f8fafc" filter="url(#b)"><path d="M37.7971 20H26c-1.1046 0-2 .8954-2 2v8.4878c0 1.1046.8954 2 2 2h11.7971c1.1045 0 2-.8954 2-2V22c0-1.1046-.8955-2-2-2M78.0078 20H66.2107c-1.1046 0-2 .8954-2 2v8.4878c0 1.1046.8954 2 2 2h11.7971c1.1045 0 2-.8954 2-2V22c0-1.1046-.8955-2-2-2M37.7971 35.6097H26c-1.1046 0-2 .8955-2 2v10.0488c0 1.1046.8954 2 2 2h11.7971c1.1045 0 2-.8954 2-2V37.6097c0-1.1045-.8955-2-2-2M57.9025 35.6097h-11.797c-1.1046 0-2 .8955-2 2v10.0488c0 1.1046.8954 2 2 2h11.797c1.1046 0 2-.8954 2-2V37.6097c0-1.1045-.8954-2-2-2M78.0078 35.6097H66.2107c-1.1046 0-2 .8955-2 2v10.0488c0 1.1046.8954 2 2 2h11.7971c1.1045 0 2-.8954 2-2V37.6097c0-1.1045-.8955-2-2-2M37.7971 52.7805H26c-1.1046 0-2 .8954-2 2v10.0488c0 1.1046.8954 2 2 2h11.7971c1.1045 0 2-.8954 2-2V54.7805c0-1.1046-.8955-2-2-2M78.0078 52.7805H66.2107c-1.1046 0-2 .8954-2 2v10.0488c0 1.1046.8954 2 2 2h11.7971c1.1045 0 2-.8954 2-2V54.7805c0-1.1046-.8955-2-2-2M37.7971 69.9512H26c-1.1046 0-2 .8954-2 2v10.0487c0 1.1046.8954 2 2 2h11.7971c1.1045 0 2-.8954 2-2V71.9512c0-1.1046-.8955-2-2-2M78.0078 69.9512H66.2107c-1.1046 0-2 .8954-2 2v10.0487c0 1.1046.8954 2 2 2h11.7971c1.1045 0 2-.8954 2-2V71.9512c0-1.1046-.8955-2-2-2"/></g></g><defs><clipPath id="a"><rect width="104" height="104" fill="#fff" rx="28"/></clipPath><filter id="b" width="296.008" height="304" x="-96" y="-100" color-interpolation-filters="sRGB" filterUnits="userSpaceOnUse"><feFlood flood-opacity="0" result="BackgroundImageFix"/><feColorMatrix in="SourceAlpha" result="hardAlpha" values="0 0 0 0 0 0 0 0 0 0 0 0 0 0 0 0 0 0 127 0"/><feOffset/><feGaussianBlur stdDeviation="60"/><feComposite in2="hardAlpha" operator="out"/><feColorMatrix values="0 0 0 0 0.298039 0 0 0 0 0.113725 0 0 0 0 0.584314 0 0 0 0.6 0"/><feBlend in2="BackgroundImageFix" result="effect1_dropShadow_73_20"/><feColorMatrix in="SourceAlpha" result="hardAlpha" values="0 0 0 0 0 0 0 0 0 0 0 0 0 0 0 0 0 0 127 0"/><feOffset/><feGaussianBlur stdDeviation="32"/><feComposite in2="hardAlpha" operator="out"/><feColorMatrix values="0 0 0 0 0.486275 0 0 0 0 0.227451 0 0 0 0 0.929412 0 0 0 0.35 0"/><feBlend in2="effect1_dropShadow_73_20" result="effect2_dropShadow_73_20"/><feColorMatrix in="SourceAlpha" result="hardAlpha" values="0 0 0 0 0 0 0 0 0 0 0 0 0 0 0 0 0 0 127 0"/><feOffset/><feGaussianBlur stdDeviation="10"/><feComposite in2="hardAlpha" operator="out"/><feColorMatrix values="0 0 0 0 0.658824 0 0 0 0 0.333333 0 0 0 0 0.968627 0 0 0 0.71 0"/><feBlend in2="effect2_dropShadow_73_20" result="effect3_dropShadow_73_20"/><feBlend in="SourceGraphic" in2="effect3_dropShadow_73_20" result="shape"/></filter></defs></svg>