<svg xmlns="http://www.w3.org/2000/svg" fill="none" viewBox="0 0 269 53"><style>rect{fill:#09090b;transform-box:fill-box;transform-origin:center;animation:tile-in 260ms cubic-bezier(.22,1,.36,1) both}@keyframes tile-in{from{opacity:0;transform:scale(.4)}to{opacity:1;transform:scale(1)}}@media(prefers-color-scheme:dark){rect{fill:#f8fafc}}@media(prefers-reduced-motion:reduce){rect{animation:none}}</style><rect x="0" y="0" width="11" height="11" style="animation-delay:0ms"/><rect x="28" y="0" width="11" height="11" style="animation-delay:31ms"/><rect x="0" y="14" width="11" height="11" style="animation-delay:48ms"/><rect x="14" y="14" width="11" height="11" style="animation-delay:63ms"/><rect x="28" y="14" width="11" height="11" style="animation-delay:79ms"/><rect x="0" y="28" width="11" height="11" style="animation-delay:95ms"/><rect x="28" y="28" width="11" height="11" style="animation-delay:126ms"/><rect x="0" y="42" width="11" height="11" style="animation-delay:143ms"/><rect x="28" y="42" width="11" height="11" style="animation-delay:174ms"/><rect x="48" y="0" width="11" height="11" style="animation-delay:54ms"/><rect x="62" y="0" width="11" height="11" style="animation-delay:69ms"/><rect x="76" y="0" width="11" height="11" style="animation-delay:85ms"/><rect x="48" y="14" width="11" height="11" style="animation-delay:101ms"/><rect x="76" y="14" width="11" height="11" style="animation-delay:132ms"/><rect x="48" y="28" width="11" height="11" style="animation-delay:149ms"/><rect x="76" y="28" width="11" height="11" style="animation-delay:180ms"/><rect x="48" y="42" width="11" height="11" style="animation-delay:196ms"/><rect x="76" y="42" width="11" height="11" style="animation-delay:227ms"/><rect x="96" y="0" width="11" height="11" style="animation-delay:107ms"/><rect x="110" y="0" width="11" height="11" style="animation-delay:123ms"/><rect x="124" y="0" width="11" height="11" style="animation-delay:138ms"/><rect x="124" y="14" width="11" height="11" style="animation-delay:186ms"/><rect x="110" y="21" width="11" height="11" style="animation-delay:194ms"/><rect x="96" y="28" width="11" height="11" style="animation-delay:202ms"/><rect x="110" y="42" width="11" height="11" style="animation-delay:265ms"/><rect x="124" y="42" width="11" height="11" style="animation-delay:281ms"/><rect x="96" y="42" width="11" height="11" style="animation-delay:250ms"/><rect x="62" y="42" width="11" height="11" style="animation-delay:212ms"/><rect x="158" y="0" width="11" height="11" style="animation-delay:176ms"/><rect x="144" y="14" width="11" height="11" style="animation-delay:208ms"/><rect x="143" y="0" width="11" height="11" style="animation-delay:159ms"/><rect x="172" y="14" width="11" height="11" style="animation-delay:239ms"/><rect x="172" y="0" width="11" height="11" style="animation-delay:192ms"/><rect x="144" y="28" width="11" height="11" style="animation-delay:256ms"/><rect x="158" y="21" width="11" height="11" style="animation-delay:248ms"/><rect x="172" y="28" width="11" height="11" style="animation-delay:287ms"/><rect x="144" y="42" width="11" height="11" style="animation-delay:303ms"/><rect x="172" y="42" width="11" height="11" style="animation-delay:334ms"/><rect x="192" y="0" width="11" height="11" style="animation-delay:214ms"/><rect x="206" y="0" width="11" height="11" style="animation-delay:230ms"/><rect x="192" y="14" width="11" height="11" style="animation-delay:262ms"/><rect x="214" y="14" width="11" height="11" style="animation-delay:286ms"/><rect x="192" y="28" width="11" height="11" style="animation-delay:309ms"/><rect x="206" y="28" width="11" height="11" style="animation-delay:325ms"/><rect x="192" y="42" width="11" height="11" style="animation-delay:357ms"/><rect x="220" y="42" width="11" height="11" style="animation-delay:388ms"/><rect x="230" y="0" width="11" height="11" style="animation-delay:257ms"/><rect x="244" y="0" width="11" height="11" style="animation-delay:272ms"/><rect x="258" y="0" width="11" height="11" style="animation-delay:288ms"/><rect x="244" y="14" width="11" height="11" style="animation-delay:320ms"/><rect x="244" y="28" width="11" height="11" style="animation-delay:367ms"/><rect x="244" y="42" width="11" height="11" style="animation-delay:415ms"/></svg>
